<svg id="Layer_1" data-name="Layer 1" xmlns="http://www.w3.org/2000/svg" width="40" height="39.45" viewBox="0 0 40 39.45"><defs><style>.cls-1{fill:#e8762c;}.cls-2{fill:#c72036;}.cls-3{fill:#5a879b;}.cls-4{fill:#5b6591;}.cls-5{fill:#eb9128;}.cls-6{fill:#1e457d;}.cls-7{fill:#7099a5;}</style></defs><title>Untitled-1</title><polygon class="cls-1" points="26.6 20.7 21.1 20.7 21.1 26.68 18.94 26.68 18.94 20.7 13.44 20.7 13.44 18.58 18.94 18.58 18.94 12.6 21.1 12.6 21.1 18.58 26.6 18.58 26.6 20.7"/><polygon class="cls-2" points="15.54 28.34 10.62 28.34 10.62 22.99 8.75 22.99 8.75 28.34 3.82 28.34 3.82 29.97 8.75 29.97 8.75 35.32 10.62 35.32 10.62 29.97 15.54 29.97 15.54 28.34"/><polygon class="cls-3" points="36.21 9.19 31.29 9.19 31.29 3.82 29.42 3.82 29.42 9.19 24.5 9.19 24.5 10.82 29.42 10.82 29.42 16.15 31.29 16.15 31.29 10.82 36.21 10.82 36.21 9.19"/><polygon class="cls-4" points="24.19 34.28 20.85 34.28 20.85 30.55 19.25 30.55 19.25 34.28 15.91 34.28 15.91 35.72 19.25 35.72 19.25 39.45 20.85 39.45 20.85 35.72 24.19 35.72 24.19 34.28"/><polygon class="cls-5" points="15.54 9.19 10.56 9.19 10.56 3.82 8.81 3.82 8.81 9.19 3.82 9.19 3.82 10.78 8.81 10.78 8.81 16.15 10.56 16.15 10.56 10.78 15.54 10.78 15.54 9.19"/><polygon class="cls-4" points="40 18.92 36.66 18.92 36.66 15.19 35.06 15.19 35.06 18.92 31.72 18.92 31.72 20.36 35.06 20.36 35.06 24.09 36.66 24.09 36.66 20.36 40 20.36 40 18.92"/><polygon class="cls-6" points="36.21 28.34 31.29 28.34 31.29 22.99 29.42 22.99 29.42 28.34 24.5 28.34 24.5 29.97 29.42 29.97 29.42 35.32 31.29 35.32 31.29 29.97 36.21 29.97 36.21 28.34"/><polygon class="cls-7" points="23.95 3.66 20.65 3.66 20.65 0 19.45 0 19.45 3.66 16.15 3.66 16.15 4.77 19.45 4.77 19.45 8.43 20.65 8.43 20.65 4.77 23.95 4.77 23.95 3.66"/><polygon class="cls-7" points="7.8 19.06 4.49 19.06 4.49 15.47 3.32 15.47 3.32 19.06 0 19.06 0 20.22 3.32 20.2 3.32 23.81 4.49 23.81 4.49 20.19 7.8 20.17 7.8 19.06"/></svg>